<svg width="24" height="24" viewBox="0 0 24 24" fill="none" xmlns="http://www.w3.org/2000/svg">
<path fill-rule="evenodd" clip-rule="evenodd" d="M16.3623 0.125006L21.4992 5.2681H17.2807C16.7756 5.2681 16.3623 4.85484 16.3623 4.34972L16.3623 0.125006Z" fill="#EF9A9A"/>
<path fill-rule="evenodd" clip-rule="evenodd" d="M3.10703 0.125H16.3632V4.32417C16.3632 4.84336 16.788 5.2681 17.3071 5.2681H21.5V18C21.5 18.3438 21.2188 18.625 20.875 18.625H3.10704C2.76329 18.625 2.48206 18.3438 2.48206 18V0.750017C2.48206 0.406261 2.76329 0.12503 3.10704 0.12503L3.10703 0.125Z" fill="#FFCDD2"/>
<path d="M9.35413 11.9821V5.89355C11.1119 6.90838 12.8701 7.92252 14.6279 8.93738L9.35413 11.9821Z" fill="#D32F2F"/>
<path fill-rule="evenodd" clip-rule="evenodd" d="M1.27183 15.1592H22.7282C23.0778 15.1592 23.396 15.3035 23.6268 15.5359C23.8571 15.7677 24.0001 16.0865 24.0001 16.4362V22.5979C24.0001 22.9476 23.8571 23.2664 23.6268 23.4982C23.3959 23.7306 23.0778 23.8749 22.7282 23.8749H1.27183C0.922258 23.8749 0.604098 23.7306 0.373211 23.4982C0.142952 23.2664 0 22.9477 0 22.5979V16.4362C0 16.0864 0.14295 15.7677 0.373211 15.5359C0.604061 15.3035 0.92222 15.1592 1.27183 15.1592Z" fill="#D32F2F"/>
<path d="M4.68945 22.2775V16.685H6.37956L7.39389 20.5002L8.3965 16.685H10.0905V22.2775H9.04233V17.8752L7.93165 22.2775H6.84441L5.73764 17.8752V22.2775H4.68945ZM11.2129 22.2775V16.685H13.0241C13.7103 16.685 14.1582 16.7137 14.3665 16.7697C14.6869 16.853 14.9564 17.0353 15.1725 17.3166C15.3887 17.5978 15.4967 17.9611 15.4967 18.4051C15.4967 18.7489 15.4342 19.0379 15.3092 19.271C15.1842 19.5054 15.0267 19.689 14.834 19.8231C14.6426 19.9559 14.4473 20.0444 14.2493 20.0874C13.9798 20.1408 13.5892 20.1681 13.0775 20.1681H12.3418V22.2775L11.2129 22.2775ZM12.3418 17.6317V19.2176H12.959C13.4043 19.2176 13.7025 19.1889 13.8522 19.1304C14.002 19.0718 14.1191 18.9806 14.2051 18.8556C14.2897 18.7306 14.3327 18.5861 14.3327 18.4207C14.3327 18.2176 14.2728 18.0496 14.153 17.9168C14.0345 17.7853 13.8822 17.702 13.6999 17.6694C13.5645 17.6434 13.2936 17.6317 12.8874 17.6317L12.3418 17.6317ZM16.1491 20.7931L17.1856 20.6681C17.2194 20.9325 17.3079 21.1343 17.4538 21.2736C17.5983 21.4142 17.7741 21.4845 17.9798 21.4845C18.2012 21.4845 18.3874 21.3999 18.5384 21.2319C18.6894 21.064 18.765 20.8387 18.765 20.5536C18.765 20.284 18.6934 20.0705 18.5475 19.9129C18.403 19.7541 18.2259 19.6759 18.0176 19.6759C17.8809 19.6759 17.7168 19.702 17.5254 19.7554L17.6439 18.883C17.9342 18.8895 18.1556 18.827 18.308 18.6942C18.4603 18.5601 18.5371 18.383 18.5371 18.1616C18.5371 17.9728 18.4811 17.8231 18.3691 17.7111C18.2572 17.5991 18.1074 17.5431 17.9225 17.5431C17.7389 17.5431 17.5827 17.6069 17.4538 17.7345C17.3236 17.8608 17.2441 18.047 17.2168 18.2905L16.2285 18.1239C16.2975 17.7853 16.4004 17.5145 16.5397 17.3127C16.6777 17.1108 16.8718 16.952 17.1191 16.8361C17.3678 16.7202 17.6452 16.6616 17.9525 16.6616C18.4798 16.6616 18.9017 16.8296 19.2194 17.1655C19.4811 17.4403 19.6126 17.7502 19.6126 18.0965C19.6126 18.5874 19.3444 18.9793 18.8079 19.271C19.1283 19.34 19.3835 19.4936 19.5762 19.7332C19.7676 19.9715 19.8639 20.2606 19.8639 20.5991C19.8639 21.09 19.6843 21.508 19.3262 21.8543C18.9681 22.1994 18.5215 22.3726 17.9876 22.3726C17.4811 22.3726 17.0619 22.2267 16.7285 21.9364C16.3952 21.6447 16.2025 21.2645 16.1491 20.7931Z" fill="white"/>
</svg>
